<svg xmlns="http://www.w3.org/2000/svg" width="512" height="512" viewBox="0 0 512 512"><path fill="#4ABC96" d="M7.9,256C7.9,119,119,7.9,256,7.9C393,7.9,504.1,119,504.1,256c0,137-111.1,248.1-248.1,248.1C119,504.1,7.9,393,7.9,256z"/><path fill="#FFF" d="M372.3,303.3c0,14.7,0,29.5,0,44.2c-75.1,0-150.2,0-225.2,0c0-14.7,0-29.3,0-44c0-19-29.4-19.1-29.4-0.2c0,19.6,0,39.2,0,58.8c0,4.1,1.4,7.2,3.5,9.5c2.3,3.1,6,5.3,11.1,5.3c84.9,0,169.7,0,254.6,0c4.1,0,7.2-1.4,9.5-3.5c3.1-2.3,5.3-6,5.3-11.1c0-19.6,0-39.2,0-58.8C401.7,284.5,372.3,284.4,372.3,303.3z"/><path fill="#FFF" d="M325.6,203.8c-16.1,0-32.3,0-48.4,0c0-24.4,0-48.9,0-73.3c0-28.5-44.1-28.7-44.1-0.3c0,24.5,0,49.1,0,73.6c-15.5,0-31,0-46.5,0c-0.3,0-0.6,0-0.8,0.1c-3,0.3-5,2.1-5.9,4.4c-1.1,2.3-1.1,5.1,0.9,7.5c0.2,0.3,0.5,0.6,0.8,0.9c23.1,23.1,46.2,46.2,69.3,69.3c2.8,2.8,7.6,2.8,10.4-0.1c23.2-23.2,46.3-46.4,69.5-69.5C335.2,211.9,331.9,203.8,325.6,203.8z"/></svg>